<?xml version="1.0" standalone="no"?>
<!DOCTYPE svg PUBLIC "-//W3C//DTD SVG 20010904//EN"
 "http://www.w3.org/TR/2001/REC-SVG-20010904/DTD/svg10.dtd">
<svg version="1.0" xmlns="http://www.w3.org/2000/svg"
 width="192.000000pt" height="192.000000pt" viewBox="0 0 192.000000 192.000000"
 preserveAspectRatio="xMidYMid meet">

<g transform="translate(0.000000,192.000000) scale(0.100000,-0.100000)"
fill="#000000" stroke="none">
<path d="M430 1901 c-15 -30 -13 -493 3 -514 15 -20 693 -347 719 -347 11 0
100 54 199 121 164 110 180 123 177 147 -3 24 -56 57 -528 319 -289 160 -533
292 -542 292 -10 1 -22 -8 -28 -18z m529 -339 c244 -136 446 -252 448 -258 2
-6 -55 -50 -127 -97 l-131 -86 -117 56 c-64 30 -162 77 -217 103 -55 26 -148
70 -207 98 l-108 51 0 191 c0 104 3 190 8 190 4 -1 207 -112 451 -248z"/>
<path d="M430 1251 c-6 -13 -10 -224 -10 -616 0 -392 4 -603 10 -616 6 -10 17
-19 25 -19 8 0 260 140 561 311 414 237 548 318 555 336 5 13 9 129 9 256 0
239 -6 278 -41 285 -15 3 -201 -185 -780 -785 -109 -113 -195 -195 -197 -188
-2 8 15 72 37 142 144 461 202 659 199 682 -3 22 -29 43 -167 129 -90 56 -170
102 -177 102 -7 0 -18 -9 -24 -19z m174 -158 c50 -31 97 -61 104 -68 10 -9 -7
-78 -93 -356 -59 -189 -108 -346 -111 -348 -2 -2 -4 183 -4 412 0 229 3 417 6
417 4 0 48 -25 98 -57z m896 -232 c0 -131 -3 -181 -12 -189 -31 -24 -771 -443
-775 -438 -7 6 765 806 778 806 5 0 9 -80 9 -179z"/>
</g>
</svg>
